<svg width="20" height="17" viewBox="0 0 20 17" fill="none" xmlns="http://www.w3.org/2000/svg">
<path d="M0 8.49999C0 8.98508 0.393178 9.37826 0.878268 9.37826H17.0282L11.4879 14.9134C11.3194 15.0819 11.2326 15.3066 11.2326 15.5312C11.2326 15.7559 11.3194 15.9806 11.4879 16.1491C11.8301 16.4912 12.3866 16.4912 12.7288 16.1491L19.7549 9.11784C20.0817 8.79104 20.0817 8.20893 19.7549 7.87703L12.7237 0.850886C12.3815 0.50877 11.825 0.50877 11.4828 0.850886C11.1407 1.193 11.1407 1.74958 11.4828 2.0917L17.018 7.62683H0.873161C0.388071 7.62172 0 8.0149 0 8.49999Z" fill="#676767"/>
</svg>
