<svg width="71" height="71" viewBox="0 0 71 71" fill="none" xmlns="http://www.w3.org/2000/svg">
<path d="M6.06376 19.1673L4.31376 22.1983C3.66943 23.3143 4.05178 24.7413 5.16776 25.3857L16.2814 31.8023C17.3974 32.4467 18.8244 32.0643 19.4688 30.9483L21.2188 27.9173C21.8631 26.8013 21.4807 25.3743 20.3648 24.73L9.25109 18.3133C8.13511 17.669 6.70809 18.0513 6.06376 19.1673Z" fill="#00730C"/>
<path d="M28.1733 30.4017L23.8333 27.9167L20.9166 32.9684C25.7466 35.7451 25.385 35.6168 25.8283 35.5701C26.5009 36.4313 27.1167 37.3354 27.6716 38.2768C28.4799 36.6567 29.4039 35.0971 30.4366 33.6101C29.6666 32.9451 29.0133 32.4434 28.535 32.0934C28.8697 31.5208 28.7129 30.7875 28.1733 30.4017Z" fill="#00730C"/>
<path d="M16.278 49.6973L5.16434 56.114C4.04836 56.7583 3.66601 58.1853 4.31034 59.3013L6.06034 62.3323C6.70468 63.4483 8.1317 63.8306 9.24768 63.1863L20.3614 56.7696C21.4773 56.1253 21.8597 54.6983 21.2153 53.5823L19.4653 50.5513C18.821 49.4353 17.394 49.053 16.278 49.6973Z" fill="#00730C"/>
<path d="M50.7483 22.8184C44.8333 25.3384 45.2066 25.0934 43.4099 26.1667C39.1166 28.6517 34.8583 31.2884 32.1866 35.1967C31.0345 36.9958 29.9904 38.8619 29.0599 40.785C28.1747 42.6277 27.1036 44.3751 25.8633 46C25.3733 46 25.7933 45.79 20.9399 48.59L23.8333 53.5834L28.1499 51.0984C28.6957 50.6877 28.8375 49.9283 28.4766 49.3484L28.5466 49.4417C31.7741 46.9912 34.6103 44.0645 36.9583 40.7617C41.3799 34.6717 36.7249 38.0667 52.1249 29.1767L66.125 21.115C60.9367 20.4707 55.6697 21.0542 50.7483 22.8184Z" fill="#00730C"/>
<path d="M38.37 42.7918C36.9381 44.7196 35.35 46.5262 33.6217 48.1935C36.235 51.2268 42.5117 55.0651 45.825 56.6518C45.2461 59.5982 44.4067 62.4873 43.3167 65.2851C42.8424 66.256 42.9438 67.4096 43.58 68.2829C44.2163 69.1562 45.2833 69.6062 46.3528 69.4523C47.4224 69.2984 48.3192 68.5658 48.6834 67.5485C49.8341 64.7466 50.7397 61.8502 51.39 58.8918C56.1143 60.4937 61.1401 61.0043 66.09 60.3851L52.5567 52.5685C53.518 45.6288 53.518 38.5898 52.5567 31.6501L47.0034 34.8585C47.4896 39.6723 47.4896 44.523 47.0034 49.3368C38.7667 44.6118 40.4584 45.8718 38.37 42.7918Z" fill="#00730C"/>
<path d="M39.805 17.0201C37.4717 10.5101 25.8633 5.99507 21.3833 9.64674C21.255 12.5867 24.1717 16.2617 28.6867 18.5251C32.8983 20.6251 37.2383 20.8584 39.6533 19.3651C40.9741 19.5344 42.311 19.5344 43.6317 19.3651C44.0167 20.5317 44.39 21.6984 44.705 22.8651L50.0017 20.6251C50.1883 20.6251 50.13 20.6251 50.0017 20.3101C49.43 14.0801 58.8334 9.61174 58.8334 9.57674C59.8819 9.22653 60.6423 8.31361 60.7973 7.21902C60.9522 6.12443 60.4749 5.03634 59.5648 4.40891C58.6546 3.78147 57.4679 3.72255 56.5 4.25674C52.814 6.00621 49.5684 8.56201 47.0033 11.7351C45.7523 8.78657 44.3265 5.91535 42.7333 3.13674C42.2301 2.20555 41.2618 1.6201 40.2034 1.60703C39.145 1.59397 38.1626 2.15535 37.6365 3.07383C37.1104 3.99232 37.1233 5.12374 37.67 6.03007C39.6984 9.57348 41.4347 13.2763 42.8617 17.1017C41.8429 17.1872 40.8178 17.1599 39.805 17.0201Z" fill="#00730C"/>
</svg>
