<svg width="31" height="31" viewBox="0 0 31 31" fill="none" xmlns="http://www.w3.org/2000/svg">
<g filter="url(#filter0_d_9829_36635)">
<path d="M17.2578 9.34766C17.7432 9.34766 18.1367 8.95416 18.1367 8.46875C18.1367 7.98334 17.7432 7.58984 17.2578 7.58984C16.7724 7.58984 16.3789 7.98334 16.3789 8.46875C16.3789 8.95416 16.7724 9.34766 17.2578 9.34766Z" fill="white"/>
<path d="M20.7734 9.34766C21.2588 9.34766 21.6523 8.95416 21.6523 8.46875C21.6523 7.98334 21.2588 7.58984 20.7734 7.58984C20.288 7.58984 19.8945 7.98334 19.8945 8.46875C19.8945 8.95416 20.288 9.34766 20.7734 9.34766Z" fill="white"/>
<path d="M24.2891 9.34766C24.7745 9.34766 25.168 8.95416 25.168 8.46875C25.168 7.98334 24.7745 7.58984 24.2891 7.58984C23.8037 7.58984 23.4102 7.98334 23.4102 8.46875C23.4102 8.95416 23.8037 9.34766 24.2891 9.34766Z" fill="white"/>
<path d="M20.2586 28.6836C21.7055 28.6836 22.8828 27.5008 22.8828 26.0469V22.5312C22.8828 22.1531 22.641 21.8175 22.2825 21.6976L17.0215 19.9398C16.7639 19.8538 16.4813 19.8916 16.2554 20.0421L14.0182 21.5336C11.6171 20.3943 8.77924 17.5816 7.65049 15.2232L9.14147 12.9867C9.29199 12.7609 9.32979 12.4781 9.24377 12.2207L7.48596 6.95973C7.36613 6.60113 7.03045 6.35938 6.65234 6.35938H3.13672C1.68283 6.35938 0.5 7.53658 0.5 8.98361C0.5 13.8397 2.70805 18.8236 6.55801 22.6575C10.4038 26.4871 15.3975 28.6836 20.2586 28.6836ZM3.13672 8.11719H6.01936L7.44025 12.3697L5.92109 14.6484C5.76055 14.8892 5.72885 15.1936 5.83637 15.4623C6.42084 16.9235 7.59049 18.5669 9.1298 20.0898C10.659 21.6026 12.3104 22.7595 13.7799 23.3472C14.0485 23.4547 14.353 23.423 14.5938 23.2625L16.8726 21.7433L21.125 23.1642V26.0469C21.125 26.5397 20.7444 26.9258 20.2586 26.9258C11.0059 26.9258 2.25781 18.2062 2.25781 8.98361C2.25781 8.49775 2.64389 8.11719 3.13672 8.11719Z" fill="white"/>
<path d="M16.9215 18.0698C17.2498 18.2059 17.6279 18.1306 17.8793 17.8793L21.1375 14.6211H24.2891C27.7138 14.6211 30.5 11.8612 30.5 8.46875C30.5 5.07635 27.7138 2.31641 24.2891 2.31641H17.2578C13.8654 2.31641 11.1055 5.07635 11.1055 8.46875C11.1055 11.5628 13.4013 14.1307 16.3789 14.5585V17.2578C16.3789 17.6133 16.5931 17.9337 16.9215 18.0698ZM12.8633 8.46875C12.8633 6.04561 14.8347 4.07422 17.2578 4.07422H24.2891C26.7445 4.07422 28.7422 6.04561 28.7422 8.46875C28.7422 10.8919 26.7445 12.8633 24.2891 12.8633H20.7734C20.5403 12.8633 20.3168 12.9559 20.152 13.1207L18.1367 15.136V13.7422C18.1367 13.2568 17.7432 12.8633 17.2578 12.8633C14.8347 12.8633 12.8633 10.8919 12.8633 8.46875Z" fill="white"/>
</g>
<defs>
<filter id="filter0_d_9829_36635" x="-14.5" y="-14.6836" width="66" height="62.3672" filterUnits="userSpaceOnUse" color-interpolation-filters="sRGB">
<feFlood flood-opacity="0" result="BackgroundImageFix"/>
<feColorMatrix in="SourceAlpha" type="matrix" values="0 0 0 0 0 0 0 0 0 0 0 0 0 0 0 0 0 0 127 0" result="hardAlpha"/>
<feOffset dx="3" dy="1"/>
<feGaussianBlur stdDeviation="9"/>
<feComposite in2="hardAlpha" operator="out"/>
<feColorMatrix type="matrix" values="0 0 0 0 0 0 0 0 0 0 0 0 0 0 0 0 0 0 0.2 0"/>
<feBlend mode="normal" in2="BackgroundImageFix" result="effect1_dropShadow_9829_36635"/>
<feBlend mode="normal" in="SourceGraphic" in2="effect1_dropShadow_9829_36635" result="shape"/>
</filter>
</defs>
</svg>
