<svg width="71" height="71" viewBox="0 0 71 71" fill="none" xmlns="http://www.w3.org/2000/svg">
<g clip-path="url(#clip0_10252_2949)">
<path d="M29.3475 56.0763C29.3475 50.4226 24.7473 45.8224 19.0936 45.8224C13.4399 45.8224 8.83984 50.4227 8.83984 56.0763C8.83984 61.7299 13.4399 66.3302 19.0936 66.3302C24.9721 66.3302 29.3475 61.5143 29.3475 56.0763ZM17.0428 56.0763C17.0428 54.9434 17.961 54.0255 19.0936 54.0255C20.2262 54.0255 21.1444 54.9434 21.1444 56.0763C21.1444 57.2089 20.2262 58.1271 19.0936 58.1271C17.961 58.1271 17.0428 57.2089 17.0428 56.0763Z" fill="#00730C"/>
<path d="M62.2967 49.924C57.7726 49.924 54.0938 53.6029 54.0938 58.1271C54.0938 62.5356 57.6627 66.3302 62.2967 66.3302C66.8209 66.3302 70.4999 62.6512 70.4999 58.1271C70.4999 53.494 66.7236 49.924 62.2967 49.924Z" fill="#00730C"/>
<path d="M62.2968 45.8224C63.4562 45.8224 64.5561 46.0257 65.6454 46.3438C64.4612 43.3763 61.9462 41.0326 58.704 40.1848C31.7805 33.2207 35.5832 34.2486 33.9459 33.8261C29.8103 32.7866 25.0559 34.5711 22.7347 38.2862L20.4727 41.8603C27.7332 42.5663 33.4493 48.6337 33.4493 56.0763C33.4493 58.2156 32.9432 60.3128 32.0272 62.2286H50.7165C50.7113 62.2133 50.7024 62.1998 50.6972 62.1846C50.2406 60.967 49.9923 59.569 49.9923 58.127C49.9921 51.3418 55.5116 45.8224 62.2968 45.8224V45.8224ZM39.6015 51.9747C39.6015 53.1082 38.6843 54.0255 37.5507 54.0255C36.4172 54.0255 35.5 53.1082 35.5 51.9747V47.8731C35.5 46.7396 36.4172 45.8224 37.5507 45.8224C38.6843 45.8224 39.6015 46.7396 39.6015 47.8731V51.9747ZM47.9414 51.9747C47.9414 53.1082 47.0241 54.0255 45.8906 54.0255C44.757 54.0255 43.8398 53.1082 43.8398 51.9747V47.8731C43.8398 46.7396 44.757 45.8224 45.8906 45.8224C47.0241 45.8224 47.9414 46.7396 47.9414 47.8731V51.9747Z" fill="#00730C"/>
<path d="M56.1447 33.5177C56.1447 34.6512 57.1985 35.5685 58.332 35.5685H66.3983C67.5318 35.5685 68.4491 34.6512 68.4491 33.5177C68.4491 32.3842 67.5318 31.4669 66.3983 31.4669H58.332C57.1985 31.4669 56.1447 32.3842 56.1447 33.5177V33.5177Z" fill="#00730C"/>
<path d="M54.5058 27.3654C55.074 28.3494 56.3316 28.6802 57.3076 28.1164L64.4015 24.0148C65.3829 23.448 65.7193 22.1944 65.1525 21.2131C64.5817 20.2277 63.3261 19.8973 62.3507 20.4621L55.2568 24.5636C54.2754 25.1305 53.939 26.3842 54.5058 27.3654Z" fill="#00730C"/>
<path d="M52.8633 22.0978L56.8262 14.9942C57.393 14.0128 57.0566 12.7591 56.0752 12.1924C55.0938 11.6257 53.8382 11.9581 53.2734 12.9434L49.3105 20.047C48.7437 21.0284 49.0801 22.2821 50.0615 22.8488C51.0394 23.4137 52.296 23.08 52.8633 22.0978Z" fill="#00730C"/>
<path d="M1.90184 8.66553L13.0856 12.4852L16.0714 42.0546C18.6433 41.4999 19.7568 41.7982 20.1717 41.8298L17.0328 10.753C16.9506 9.94987 16.4059 9.26901 15.6408 9.01457L3.19944 4.77629C2.11799 4.41576 0.964357 4.9986 0.605881 6.07211C0.247541 7.14754 0.828322 8.3091 1.90184 8.66553V8.66553Z" fill="#00730C"/>
<path d="M45.3558 28.2967C41.3443 27.2231 38.6862 26.5603 36.9559 26.1597C35.1515 25.6892 33.2388 26.0856 31.7388 27.2452C30.9408 27.8623 30.3349 28.6513 29.9266 29.5348C31.491 29.3616 33.0981 29.3844 34.9452 29.8487L49.856 33.6439L49.8916 33.6589C49.6353 31.0846 47.8685 28.909 45.3558 28.2967Z" fill="#00730C"/>
</g>
<defs>
<clipPath id="clip0_10252_2949">
<rect width="70" height="70" fill="white" transform="translate(0.5 0.5)"/>
</clipPath>
</defs>
</svg>
