<svg width="24" height="20" viewBox="0 0 24 20" fill="none" xmlns="http://www.w3.org/2000/svg">
<path d="M11.8138 18.9958C11.8014 19.5344 11.3012 19.9251 10.801 19.8346C11.4875 19.9594 13.0852 20.1341 13.984 19.8346C13.4632 19.9127 12.9878 19.518 12.9754 18.9916C12.9754 19.0204 12.624 16.2284 14.0295 13.6461C15.2324 11.4379 15.9021 11.6682 17.3117 11.1336C19.1181 10.4469 20.9742 9.73966 22.2474 8.19766C24.3267 5.67701 23.7769 2.22293 23.5991 1.28951C21.3669 4.47631 19.1057 3.57167 16.828 5.0232C14.5131 6.49941 13.4797 8.8268 13.7029 11.3187C15.9972 7.33003 18.8949 9.08585 21.8877 5.09722C21.1602 6.29792 20.164 7.34237 18.9238 8.08664C17.1422 9.17221 16.2824 8.85558 13.583 12.7538C13.087 13.4692 12.686 14.2505 12.3967 15.0688C12.0618 14.123 11.5782 13.2143 10.9664 12.4166C9.73865 10.8252 9.19713 9.9247 8.12235 9.15576C6.65074 8.09486 4.14568 7.68777 2.12428 4.34061C5.49742 8.84324 8.65974 6.78725 11.2309 11.2652C11.4872 8.42793 10.2802 5.87438 7.75445 4.26248C5.22046 2.64647 2.70714 3.65391 0.222752 0.105255C0.024332 1.14559 -0.587461 4.99031 1.72744 7.79469C3.14053 9.50769 5.19413 10.2895 7.1967 11.0519L7.21706 11.0596C8.18023 11.4256 10.6563 11.5366 11.6236 15.9241C11.8882 17.1413 11.8427 17.8444 11.8138 18.9958Z" fill="#00730C"/>
</svg>
