<svg width="23" height="23" viewBox="0 0 23 23" fill="none" xmlns="http://www.w3.org/2000/svg">
<path d="M22.1381 22.5308V22.5299H22.1436V14.4614C22.1436 10.5142 21.2938 7.47363 16.6793 7.47363C14.461 7.47363 12.9723 8.69097 12.3646 9.84505H12.3004V7.84213H7.92517V22.5299H12.481V15.2571C12.481 13.3421 12.844 11.4905 15.2154 11.4905C17.552 11.4905 17.5868 13.6758 17.5868 15.3799V22.5308H22.1381Z" fill="white"/>
<path d="M0.364014 7.84326H4.92535V22.531H0.364014V7.84326Z" fill="white"/>
<path d="M2.64183 0.165039C1.18342 0.165039 0 1.34846 0 2.80687C0 4.26529 1.18342 5.47346 2.64183 5.47346C4.10025 5.47346 5.28367 4.26529 5.28367 2.80687C5.28275 1.34846 4.09933 0.165039 2.64183 0.165039V0.165039Z" fill="white"/>
</svg>
