<svg width="20" height="26" viewBox="0 0 20 26" fill="none" xmlns="http://www.w3.org/2000/svg">
<path fill-rule="evenodd" clip-rule="evenodd" d="M19.526 8.79303C19.526 14.3379 16.4433 18.4811 11.8989 18.4811C10.3722 18.4811 8.93753 17.6557 8.44581 16.7187C8.44581 16.7187 7.62486 19.9756 7.45189 20.6044C6.83976 22.8255 5.03911 25.0475 4.89996 25.2302C4.80193 25.3567 4.58706 25.3169 4.56392 25.1494C4.5249 24.8663 4.06617 22.0636 4.60652 19.7772C4.87746 18.6291 6.42439 12.0747 6.42439 12.0747C6.42439 12.0747 5.9738 11.1721 5.9738 9.83846C5.9738 7.74291 7.18769 6.17951 8.69952 6.17951C9.98519 6.17951 10.6057 7.1442 10.6057 8.30119C10.6057 9.59441 9.78322 11.5268 9.35818 13.3171C9.00333 14.8169 10.1102 16.0404 11.589 16.0404C14.2669 16.0404 16.0706 12.6 16.0706 8.5242C16.0706 5.42658 13.9847 3.10727 10.1888 3.10727C5.90197 3.10727 3.22945 6.30514 3.22945 9.8773C3.22945 11.1092 3.59314 11.9781 4.16261 12.6494C4.42312 12.9584 4.46056 13.0827 4.36546 13.4374C4.29656 13.6979 4.1424 14.3236 4.0766 14.572C3.98302 14.9305 3.69257 15.0578 3.36937 14.9259C1.39505 14.1199 0.474487 11.9563 0.474487 9.52551C0.474663 5.51055 3.86115 0.695312 10.5773 0.695312C15.9748 0.695312 19.526 4.59971 19.526 8.79303Z" fill="white"/>
</svg>
