<svg width="50" height="50" viewBox="0 0 50 50" fill="none" xmlns="http://www.w3.org/2000/svg">
<g clip-path="url(#clip0_10261_723)">
<path d="M38.5266 48.4371C38.16 48.1832 37.3568 47.6381 36.2434 46.9364L39.2893 45.0203C39.3054 45.0101 39.3212 44.9994 39.3365 44.988C40.4815 44.1454 41.3663 42.9976 41.8898 41.6758L43.7619 36.9535C43.8383 36.7609 43.835 36.5458 43.7528 36.3556C43.6706 36.1654 43.5162 36.0157 43.3235 35.9393L41.1448 35.0756L43.736 28.5393C43.8314 28.5772 43.9333 28.5959 44.0359 28.5944C44.1385 28.5928 44.2398 28.5711 44.334 28.5304C44.4282 28.4897 44.5134 28.4308 44.5849 28.3571C44.6563 28.2834 44.7125 28.1964 44.7502 28.1009L48.2052 19.3858C48.2815 19.1932 48.2782 18.9781 48.196 18.7879C48.1138 18.5977 47.9594 18.448 47.7668 18.3716L44.1354 16.9321C43.9428 16.8557 43.7278 16.859 43.5376 16.9412C43.3474 17.0235 43.1976 17.1778 43.1213 17.3705L39.6664 26.0857C39.5901 26.2783 39.5933 26.4934 39.6756 26.6836C39.7578 26.8738 39.9122 27.0235 40.1048 27.0999L37.5136 33.6362L35.3348 32.7724C35.1421 32.6961 34.9271 32.6994 34.7369 32.7816C34.5467 32.8638 34.397 33.0182 34.3206 33.2108L32.5652 37.6388C31.9702 39.149 31.872 40.8096 32.2851 42.3793L32.6224 44.7888C28.5388 42.5168 23.1375 40.0311 18.75 39.814V36.3143L23.0495 32.9C23.6355 32.969 24.2251 33.0035 24.8151 33.0033C25.3175 33.0038 25.8195 32.9777 26.319 32.9252C29.1964 32.6184 31.4053 31.4173 32.7069 29.4517C35.7188 24.9034 33.7574 16.5746 33.6725 16.2222C33.6262 16.0303 33.5089 15.863 33.3443 15.754C33.1797 15.645 32.9799 15.6023 32.7852 15.6346C32.4276 15.6939 23.9939 17.1391 20.9821 21.6875C19.6805 23.6531 19.4368 26.1556 20.2776 28.9245C20.6111 30.007 21.0669 31.0479 21.6361 32.0272L18.75 34.3192V20.0301C19.7638 19.5283 20.7172 18.9127 21.5918 18.1952C23.8216 16.3508 25 14.1298 25 11.7722C25 6.31695 18.7662 0.455624 18.5009 0.208847C18.3563 0.0743065 18.1661 -0.000488281 17.9687 -0.000488281C17.7712 -0.000488281 17.581 0.0743065 17.4364 0.208847C16.2643 1.33811 15.1874 2.56222 14.2167 3.86871C12.041 6.7941 10.9375 9.45328 10.9375 11.7722C10.9375 14.1298 12.116 16.3508 14.3457 18.1952C15.2203 18.9127 16.1737 19.5283 17.1875 20.0301V35.1004L14.3017 32.809C14.8709 31.8299 15.3266 30.789 15.6602 29.7066C16.501 26.9378 16.2573 24.4352 14.9557 22.4696C11.9438 17.9212 3.51035 16.4759 3.15264 16.4168C2.95786 16.3845 2.75808 16.4271 2.59346 16.5361C2.42885 16.6451 2.31161 16.8124 2.26533 17.0044C2.18037 17.3567 0.218945 25.6855 3.23086 30.2338C4.53252 32.1995 6.74141 33.4006 9.61875 33.7073C10.1183 33.7598 10.6203 33.7859 11.1227 33.7854C11.7127 33.7856 12.3023 33.7511 12.8883 33.6821L17.1875 37.0956V39.841C17.1617 39.8433 17.1354 39.8446 17.1094 39.8472C13.7256 40.1856 10.1112 41.7808 6.36719 44.5895C4.81223 45.7532 3.35318 47.0399 2.0041 48.4371H0V49.9996H50V48.4371H38.5266ZM30.4206 25.1622L27.6091 24.9885C27.4551 24.979 27.3075 24.9242 27.1846 24.8309C27.0618 24.7375 26.9694 24.61 26.9189 24.4642L25.9979 21.8022L27.4744 21.2913L28.2252 23.4611L30.5168 23.6026L30.4206 25.1622ZM24.9751 23.3485L25.8851 26.5419L29.2054 26.5624L29.1956 28.1249L25.2894 28.1007C25.1203 28.0997 24.9561 28.0439 24.8215 27.9416C24.6869 27.8393 24.5891 27.6961 24.5428 27.5336L23.4723 23.7769L24.9751 23.3485ZM5.42559 24.3836L7.71719 24.2421L8.46797 22.0724L9.94453 22.5833L9.02344 25.2455C8.97301 25.3912 8.88056 25.5188 8.75774 25.6121C8.63493 25.7054 8.48724 25.7603 8.3333 25.7698L5.52178 25.9434L5.42559 24.3836ZM6.74678 28.9058L6.73701 27.3433L10.0573 27.3228L10.9673 24.1294L12.47 24.5577L11.3994 28.3143C11.3531 28.4769 11.2553 28.6201 11.1207 28.7224C10.986 28.8246 10.8219 28.8805 10.6528 28.8815L6.74678 28.9058ZM15.3125 11.0933L17.9688 13.0855L20.625 11.0933L21.5625 12.3433L18.4375 14.6871C18.3023 14.7885 18.1378 14.8433 17.9688 14.8433C17.7997 14.8433 17.6352 14.7885 17.5 14.6871L14.375 12.3433L15.3125 11.0933ZM15.1917 9.24332L16.0584 7.94332L17.9688 9.21685L19.8792 7.94322L20.7459 9.24332L18.4021 10.8058C18.2738 10.8914 18.123 10.937 17.9688 10.937C17.8146 10.937 17.6638 10.8914 17.5354 10.8058L15.1917 9.24332ZM9.375 46.8746C9.375 46.1494 9.66308 45.4539 10.1759 44.9411C10.6887 44.4283 11.3842 44.1402 12.1094 44.1402C12.8346 44.1402 13.5301 44.4283 14.0429 44.9411C14.5557 45.4539 14.8438 46.1494 14.8438 46.8746H13.2812C13.2812 46.5638 13.1578 46.2657 12.938 46.0459C12.7182 45.8262 12.4202 45.7027 12.1094 45.7027C11.7986 45.7027 11.5005 45.8262 11.2807 46.0459C11.061 46.2657 10.9375 46.5638 10.9375 46.8746H9.375ZM15.625 45.7027C15.625 44.9775 15.9131 44.282 16.4259 43.7692C16.9387 43.2564 17.6342 42.9683 18.3594 42.9683C19.0846 42.9683 19.7801 43.2564 20.2929 43.7692C20.8057 44.282 21.0938 44.9775 21.0938 45.7027H19.5312C19.5312 45.3919 19.4078 45.0938 19.188 44.8741C18.9682 44.6543 18.6702 44.5308 18.3594 44.5308C18.0486 44.5308 17.7505 44.6543 17.5307 44.8741C17.311 45.0938 17.1875 45.3919 17.1875 45.7027H15.625ZM26.5625 46.8746C26.5625 46.5638 26.439 46.2657 26.2193 46.0459C25.9995 45.8262 25.7014 45.7027 25.3906 45.7027C25.0798 45.7027 24.7818 45.8262 24.562 46.0459C24.3422 46.2657 24.2188 46.5638 24.2188 46.8746H22.6562C22.6562 46.1494 22.9443 45.4539 23.4571 44.9411C23.9699 44.4283 24.6654 44.1402 25.3906 44.1402C26.1158 44.1402 26.8113 44.4283 27.3241 44.9411C27.8369 45.4539 28.125 46.1494 28.125 46.8746H26.5625ZM41.5572 27.6753L42.2835 27.9632L39.6923 34.4996L38.966 34.2117L41.5572 27.6753ZM34.0182 38.2144L35.4856 34.5127L42.0215 37.1038L40.4373 41.0999C40.0251 42.1406 39.3307 43.0457 38.4322 43.7133L34.8017 45.9972C34.7878 46.0059 34.7743 46.0153 34.761 46.0249C34.6229 45.942 34.4812 45.8579 34.3378 45.773L33.8256 42.1145C33.8212 42.0818 33.8146 42.0493 33.8061 42.0174C33.466 40.76 33.5403 39.4264 34.0177 38.2144H34.0182Z" fill="#00730C"/>
<path d="M33.5938 11.7188C34.2118 11.7188 34.816 11.5355 35.3299 11.1921C35.8438 10.8487 36.2444 10.3607 36.4809 9.78964C36.7174 9.21862 36.7793 8.59029 36.6587 7.98409C36.5381 7.3779 36.2405 6.82108 35.8035 6.38404C35.3664 5.947 34.8096 5.64938 34.2034 5.5288C33.5972 5.40822 32.9689 5.4701 32.3979 5.70663C31.8268 5.94315 31.3388 6.34369 30.9954 6.85759C30.652 7.3715 30.4688 7.97569 30.4688 8.59375C30.4697 9.42227 30.7992 10.2166 31.3851 10.8024C31.9709 11.3883 32.7652 11.7178 33.5938 11.7188Z" fill="#00730C"/>
<path d="M1.13608 8.23901C1.23521 8.33815 1.35919 8.40878 1.49502 8.44351C1.63084 8.47823 1.77351 8.47577 1.90805 8.43638L4.35981 7.71821L6.81167 8.43638C6.94622 8.47578 7.08889 8.47825 7.22472 8.44353C7.36055 8.40881 7.48454 8.33818 7.58367 8.23905C7.68281 8.13991 7.75344 8.01592 7.78816 7.88009C7.82288 7.74426 7.82041 7.60159 7.781 7.46704L7.06294 5.01518L7.7811 2.56333C7.82051 2.42878 7.82298 2.28611 7.78826 2.15028C7.75354 2.01444 7.68291 1.89046 7.58377 1.79132C7.48464 1.69219 7.36065 1.62156 7.22482 1.58684C7.08899 1.55212 6.94631 1.55459 6.81177 1.59399L4.35991 2.31216L1.90805 1.59409C1.77351 1.55469 1.63083 1.55221 1.495 1.58693C1.35917 1.62165 1.23518 1.69228 1.13605 1.79142C1.03691 1.89056 0.966282 2.01454 0.931562 2.15037C0.896842 2.28621 0.899314 2.42888 0.938719 2.56343L1.65688 5.01528L0.938719 7.46704C0.899325 7.60159 0.896861 7.74425 0.931586 7.88008C0.966312 8.01591 1.03695 8.13988 1.13608 8.23901Z" fill="#00730C"/>
<path d="M27.3438 35.9375H25.7812V37.5H27.3438V35.9375Z" fill="#00730C"/>
</g>
<defs>
<clipPath id="clip0_10261_723">
<rect width="50" height="50" fill="white"/>
</clipPath>
</defs>
</svg>
